<svg xmlns="http://www.w3.org/2000/svg" viewBox="0 0 512 512">
  <defs/>
  <path d="m 367.859,339.663 c 0,-11.391 -5.325,-21.54 -13.68,-28.055 8.354,-6.515 13.774,-16.664 13.774,-28.055 0,-11.993 -6.207,-22.611 -15.328,-29.058 9.183,-7.254 14.858,-18.476 14.858,-31.06 V 148.74 L 287.2369,55.524855 311.374,55.108 V 0 H 200.156 v 55.108 h 23.47068 L 144.047,148.74 v 74.697 c 0,12.584 6.161,23.805 15.344,31.06 -9.121,6.447 -14.968,17.064 -14.968,29.058 0,11.391 5.451,21.54 13.805,28.055 -8.354,6.515 -13.711,16.664 -13.711,28.055 0,11.993 5.737,22.611 14.858,29.058 -9.183,7.254 -15.328,18.476 -15.328,31.06 v 64.125 c 0,21.823 18.256,40.078 40.078,40.078 h 40.078 c 41.43399,-0.033 65.74124,0 104.203,0 21.823,0 39.076,-18.256 39.076,-40.078 v -64.125 c 0,-12.584 -5.66,-23.805 -14.843,-31.06 9.122,-6.448 15.22,-17.066 15.22,-29.06 z"/>
</svg>