<svg height="512pt" viewBox="-94 0 512 512.001" width="512pt" xmlns="http://www.w3.org/2000/svg">
  <!-- Middle gray -->
  <path d="m51 97h263v347h-263zm0 0" fill="#edf2fa"/>
  <!-- Top Gray -->
  <path d="m88.667969 14-36.929688 54h262.261719l-36.929688-54zm0 0" fill="#d8d8e4"/>
  <!-- Bottom Gray -->
  <path d="m313.316406 445h-255.316406l38.984375 57h177.347656zm0 0" fill="#d8d8e4"/>
  <!-- Up Dot -->
  <path d="m10 206c-2.628906 0-5.210938-1.070312-7.070312-2.929688-1.859376-1.859374-2.929688-4.4375-2.929688-7.070312 0-2.628906 1.070312-5.210938 2.929688-7.070312 1.863281-1.859376 4.441406-2.929688 7.070312-2.929688s5.210938 1.070312 7.070312 2.929688c1.859376 1.859374 2.929688 4.441406 2.929688 7.070312 0 2.632812-1.070312 5.210938-2.929688 7.070312-1.859374 1.859376-4.441406 2.929688-7.070312 2.929688zm0 0"/>
  <!-- Can Outline -->
  <path d="m323.976562 68.007812c.003907-1.980468-.5625-3.957031-1.722656-5.652343l-29.054687-42.484375c4.792969-.738282 8.46875-4.871094 8.46875-9.871094 0-5.523438-4.476563-10-10-10h-259.335938c-5.519531 0-10 4.476562-10 10 0 5 3.675781 9.132812 8.46875 9.871094l-29.054687 42.484375c-1.15625 1.695312-1.7226565 3.664062-1.7226565 5.644531-.0078125 0-.015625 0-.0234375 0v84c0 5.523438 4.476562 10 10 10s10-4.476562 10-10v-74h284v356h-36v-74.5c0-5.519531-4.476562-10-10-10s-10 4.480469-10 10v74.5h-228v-197c0-5.519531-4.476562-10-10-10s-10 4.480469-10 10v207c.0078125 0 .015625.003906.0234375.003906 0 1.976563.5664065 3.949219 1.7226565 5.640625l29.054687 42.484375c-4.792969.738282-8.46875 4.871094-8.46875 9.871094 0 5.523438 4.480469 10 10 10h259.335938c5.523437 0 10-4.476562 10-10 0-5-3.675781-9.132812-8.46875-9.871094l29.054687-42.484375c1.15625-1.691406 1.722656-3.65625 1.722656-5.632812.011719-.003907.015626-.007813.023438-.011719v-376c-.007812.003906-.015625.007812-.023438.007812zm-295.023437-10.007812 25.992187-38h214.109376l25.992187 38zm240.105469 434h-214.113282l-25.992187-38h266.09375zm0 0"/>
  <!-- Bottom Dot -->
  <path d="m258 332c-2.628906 0-5.210938-1.070312-7.070312-2.929688-1.859376-1.859374-2.929688-4.4375-2.929688-7.070312 0-2.640625 1.070312-5.210938 2.929688-7.070312 1.863281-1.859376 4.441406-2.929688 7.070312-2.929688s5.210938 1.070312 7.070312 2.929688c1.859376 1.859374 2.929688 4.441406 2.929688 7.070312 0 2.632812-1.070312 5.210938-2.929688 7.070312-1.859374 1.859376-4.441406 2.929688-7.070312 2.929688zm0 0"/>
</svg>