<svg xmlns="http://www.w3.org/2000/svg" viewBox="0 0 512 512">
  <defs/>
  <path d="M391 241v-45c0-36.219-25.81-66.524-60-73.493V45c0-8.284-6.716-15-15-15H196c-8.284 0-15 6.716-15 15v77.507c-34.19 6.969-60 37.274-60 73.493v45l12 29v95l-12 26v106c0 8.284 6.716 15 15 15h240c8.284 0 15-6.716 15-15V391l-18-26v-92z M166 60h180c8.284 0 15-6.716 15-15V15c0-8.284-6.716-15-15-15H166c-8.284 0-15 6.716-15 15v30c0 8.284 6.716 15 15 15zm149.689 181c-14.085-18.694-36.234-30-59.689-30s-45.604 11.306-59.689 30H121v150h75.311c14.085 18.694 36.234 30 59.689 30s45.604-11.306 59.689-30H391V241zM301 331h-90c-8.284 0-15-6.716-15-15s6.716-15 15-15h90c8.284 0 15 6.716 15 15s-6.716 15-15 15z"/>
</svg>
