<svg xmlns="http://www.w3.org/2000/svg" viewBox="0 0 100 125">
  <g transform="translate(0,-952.36218)">
    <path d="m 50,956.36217 c -14.3594,0 -26,2.6905 -26,6.0093 0,3.3189 11.6406,6.0094 26,6.0094 14.359397,0 25.999997,-2.6905 25.999997,-6.0094 0,-3.3188 -11.6406,-6.0093 -25.999997,-6.0093 z m -9,3.2237 c 2.11173,0 4.02376,0.2261 5.53125,0.6573 1.5075,0.4315 2.78125,1.166 2.78125,2.1283 0,0.9623 -1.27375,1.6657 -2.78125,2.097 -1.50749,0.4315 -3.41952,0.6573 -5.53125,0.6573 -2.11174,0 -4.02375,-0.2259 -5.53125,-0.6573 -1.5075,-0.4312 -2.78125,-1.1347 -2.78125,-2.097 0,-0.9623 1.27375,-1.6968 2.78125,-2.1283 1.5075,-0.4312 3.41951,-0.6573 5.53125,-0.6573 z m 0,1.5337 c -1.75427,0 -3.34899,0.2071 -4.375,0.5008 -1.02602,0.2936 -1.3125,0.6072 -1.3125,0.7511 0,0.144 0.28648,0.4264 1.3125,0.7199 1.02601,0.2937 2.62073,0.5007 4.375,0.5007 1.75427,0 3.34898,-0.207 4.375,-0.5007 1.02601,-0.2935 1.3125,-0.5759 1.3125,-0.7199 0,-0.1439 -0.28649,-0.4575 -1.3125,-0.7511 -1.02602,-0.2937 -2.62073,-0.5008 -4.375,-0.5008 z m 34.968747,4.5696 c -2.19655,1.2301 -4.78991,2.0296 -6.8125,2.5039 -3.65285,0.8443 -8.17413,1.428 -13.1875,1.6901 -0.905157,8.7304 0.10801,14.7147 4.03125,24.5381 6.91407,17.80663 8.93054,25.86493 5.125,47.29213 4.25069,-0.9714 8.26723,-2.3532 11.875,-4.2253 l 0,-67.01033 c 0,-1.4788 0.009,-3.4211 -1.03125,-4.7886 z m -51.937497,0.031 C 23.00499,967.07897 23,968.96447 23,970.32117 l 0,67.16673 c 9.80908,4.4913 21.29183,6.3564 32.125,5.6651 4.894657,-13.9084 5.850567,-27.8542 2.874997,-46.72883 -1.96249,-8.8449 -7.758657,-14.8097 -7.031247,-26.3847 -8.46317,0.014 -13.96133,-0.4688 -20.09375,-1.8466 -2.46637,-0.6263 -4.80897,-1.3854 -6.84375,-2.4727 z m 49.624997,75.46103 c -13.88287,5.5627 -31.678027,5.5445 -46.843747,0.031 5.91228,9.6492 42.881407,9.427 46.843747,-0.031 z"/>
  </g>
</svg>