<?xml version="1.0" encoding="utf-8"?>
<svg width="1904px"
  height="500px"
  viewBox="0 0 1904 500"
  style="font-family: -apple-system, system-ui, Segoe UI, Roboto, Helvetica, Arial, sans-serif, Apple Color Emoji, Segoe UI Emoji, Segoe UI Symbol;font-size: 16px;"
  version="1.1"
  xmlns="http://www.w3.org/2000/svg"
  xmlns:xlink="http://www.w3.org/1999/xlink">
  <defs xmlns="http://www.w3.org/2000/svg">
    <clipPath id="id-30">
      <rect width="1904" height="500"/>
    </clipPath>
    <linearGradient id="gradient-id-53"
      x1="1%"
      x2="99%"
      y1="59%"
      y2="41%">
      <stop stop-color="#474758" offset="0"/>
      <stop stop-color="#474758" stop-opacity="1" offset="0.75"/>
      <stop stop-color="#3cabff" stop-opacity="1" offset="0.755"/>
    </linearGradient>
    <clipPath id="id-77"/>
    <filter id="filter-id-35"
      filterUnits="objectBoundingBox"
      width="200%"
      height="200%"
      x="-50%"
      y="-50%">
      <feGaussianBlur result="blurOut" in="SourceGraphic" stdDeviation="1.5"/>
      <feOffset result="offsetBlur" dx="1" dy="1"/>
      <feFlood flood-color="#000000" flood-opacity="0.5"/>
      <feComposite in2="offsetBlur" operator="in"/>
      <feMerge>
        <feMergeNode/>
        <feMergeNode in="SourceGraphic"/>
      </feMerge>
    </filter>
    <filter id="filter-id-50"
      filterUnits="objectBoundingBox"
      width="120%"
      height="120%"
      x="-10%"
      y="-10%">
      <feColorMatrix type="saturate" values="0"/>
    </filter>
    <filter id="filter-id-82"
      filterUnits="objectBoundingBox"
      width="200%"
      height="200%"
      x="-50%"
      y="-50%">
      <feGaussianBlur result="blurOut" in="SourceGraphic" stdDeviation="1.5"/>
      <feOffset result="offsetBlur" dx="1" dy="1"/>
      <feFlood flood-color="#000000" flood-opacity="0.5"/>
      <feComposite in2="offsetBlur" operator="in"/>
      <feMerge>
        <feMergeNode/>
        <feMergeNode in="SourceGraphic"/>
      </feMerge>
    </filter>
    <clipPath id="id-492" transform="translate(722.5,235) scale(1.5785743794019553)">
      <path d="M265.081,133.419c-7.95-26.232-25.885-43.17-51.866-48.984c-6.762-1.515-13.381-2.282-19.672-2.282 c-15.877,0-27.92,4.871-36.634,10.598c0.037-2.923-0.107-9.156-1.461-18.038c1.123,0.074,2.864,0.157,5.096,0.157 c11.068,0,31.675-2.036,45.315-15.674C224.47,40.584,221.405,8.747,221.265,7.4l-0.67-6.462l-6.462-0.67 C213.87,0.241,211.443,0,207.652,0c-11.069,0-31.675,2.037-45.312,15.675c-8.406,8.405-12.383,19.504-14.212,29.277 c-3.988-11.944-9.756-25.577-18.117-40.407c-2.169-3.847-7.05-5.21-10.898-3.039c-3.85,2.17-5.21,7.049-3.04,10.898 c24.289,43.078,24.902,75.465,24.828,80.66c-8.719-5.67-20.785-10.2-36.707-10.2c-0.001,0-0.004,0-0.006,0 c-6.288,0-12.904,0.412-19.668,1.926c-25.98,5.814-43.916,22.575-51.866,48.807c-7.353,24.263-4.524,51.562-0.857,70.264 c3.896,19.871,14.335,42.127,27.926,59.604c7.75,9.966,16.168,17.918,25.021,23.678c10.813,7.037,22.005,10.594,33.264,10.594 c10.8,0,21.136-3.236,30.86-9.631c9.726,6.395,20.061,9.623,30.861,9.623c11.26,0,22.452-3.569,33.266-10.605 c8.852-5.76,17.271-13.736,25.02-23.701c13.591-17.477,24.03-39.775,27.927-59.65C269.607,185.067,272.433,157.68,265.081,133.419z  M257.425,135.739c-3.312-10.927-8.563-20.036-15.576-27.162C248.862,115.703,254.113,124.813,257.425,135.739z" transform="translate(-148.868,-148.869)"/>
    </clipPath>
  </defs>
  <g xmlns="http://www.w3.org/2000/svg" style="pointer-events: none;">
    <g fill="#ffffff" fill-opacity="0">
      <rect width="1904" height="500"/>
    </g>
    <g>
      <g role="region" clip-path="url(#id-30)" opacity="1" aria-describedby="id-22-description">
        <g fill="rgba(255,0,0,0)">
          <rect width="1904" height="500"/>
        </g>
        <g transform="translate(15,15)">
          <g>
            <g>
              <g role="group" aria-describedby="id-94-description" transform="translate(10,187)">
                <g>
                  <g focusable="true"
                    tabindex="0"
                    role="switch"
                    aria-controls="id-132"
                    aria-labelledby="id-132"
                    aria-checked="true"
                    transform="translate(10,0)"
                    style="cursor: pointer;">
                    <g fill="#ffffff" fill-opacity="0">
                      <rect width="174" height="39"/>
                    </g>
                    <g transform="translate(0,8)">
                      <g style="pointer-events: none;">
                        <g fill="#ffffff" fill-opacity="0" stroke-opacity="0" stroke="#000000">
                          <rect width="23" height="23"/>
                        </g>
                        <g>
                          <g fill="#67b7dc" stroke="#67b7dc">
                            <path d="M3,0 L20,0 a3,3 0 0 1 3,3 L23,20 a3,3 0 0 1 -3,3 L3,23 a3,3 0 0 1 -3,-3 L0,3 a3,3 0 0 1 3,-3 Z"/>
                          </g>
                        </g>
                      </g>
                      <g fill="#000000" style="pointer-events: none;" transform="translate(28,11.5)">
                        <g display="none"/>
                      </g>
                      <g fill="#000000" style="pointer-events: none;" transform="translate(123,2.5)">
                        <g style="user-select: none;">
                          <text x="46" y="18.015625" dy="-4.864" text-anchor="end">
                            <tspan>3.6%</tspan>
                          </text>
                        </g>
                      </g>
                    </g>
                  </g>
                  <g focusable="true"
                    tabindex="0"
                    role="switch"
                    aria-controls="id-163"
                    aria-labelledby="id-163"
                    aria-checked="true"
                    transform="translate(10,39)"
                    style="cursor: pointer;">
                    <g fill="#ffffff" fill-opacity="0">
                      <rect width="174" height="39"/>
                    </g>
                    <g transform="translate(0,8)">
                      <g style="pointer-events: none;">
                        <g fill="#ffffff" fill-opacity="0" stroke-opacity="0" stroke="#000000">
                          <rect width="23" height="23"/>
                        </g>
                        <g>
                          <g fill="#6794dc" stroke="#6794dc">
                            <path d="M3,0 L20,0 a3,3 0 0 1 3,3 L23,20 a3,3 0 0 1 -3,3 L3,23 a3,3 0 0 1 -3,-3 L0,3 a3,3 0 0 1 3,-3 Z"/>
                          </g>
                        </g>
                      </g>
                      <g fill="#000000" style="pointer-events: none;" transform="translate(28,11.5)">
                        <g display="none"/>
                      </g>
                      <g fill="#000000" style="pointer-events: none;" transform="translate(123,2.5)">
                        <g style="user-select: none;">
                          <text x="46" y="18.015625" dy="-4.864" text-anchor="end">
                            <tspan>7.1%</tspan>
                          </text>
                        </g>
                      </g>
                    </g>
                  </g>
                  <g focusable="true"
                    tabindex="0"
                    role="switch"
                    aria-controls="id-193"
                    aria-labelledby="id-193"
                    aria-checked="true"
                    transform="translate(10,78)"
                    style="cursor: pointer;">
                    <g fill="#ffffff" fill-opacity="0">
                      <rect width="174" height="39"/>
                    </g>
                    <g transform="translate(0,8)">
                      <g style="pointer-events: none;">
                        <g fill="#ffffff" fill-opacity="0" stroke-opacity="0" stroke="#000000">
                          <rect width="23" height="23"/>
                        </g>
                        <g>
                          <g fill="#6771dc" stroke="#6771dc">
                            <path d="M3,0 L20,0 a3,3 0 0 1 3,3 L23,20 a3,3 0 0 1 -3,3 L3,23 a3,3 0 0 1 -3,-3 L0,3 a3,3 0 0 1 3,-3 Z"/>
                          </g>
                        </g>
                      </g>
                      <g fill="#000000" style="pointer-events: none;" transform="translate(28,2.5)">
                        <g style="user-select: none;">
                          <text x="0" y="18.015625" overflow="hidden" dy="-4.864">
                            <tspan>The third</tspan>
                          </text>
                        </g>
                      </g>
                      <g fill="#000000" style="pointer-events: none;" transform="translate(123,2.5)">
                        <g style="user-select: none;">
                          <text x="46" y="18.015625" dy="-4.864" text-anchor="end">
                            <tspan>10.7%</tspan>
                          </text>
                        </g>
                      </g>
                    </g>
                  </g>
                  <g focusable="true"
                    tabindex="0"
                    role="switch"
                    aria-controls="id-223"
                    aria-labelledby="id-223"
                    aria-checked="true"
                    transform="translate(10,117)"
                    style="cursor: pointer;">
                    <g fill="#ffffff" fill-opacity="0">
                      <rect width="174" height="39"/>
                    </g>
                    <g transform="translate(0,8)">
                      <g style="pointer-events: none;">
                        <g fill="#ffffff" fill-opacity="0" stroke-opacity="0" stroke="#000000">
                          <rect width="23" height="23"/>
                        </g>
                        <g>
                          <g fill="#8067dc" stroke="#8067dc">
                            <path d="M3,0 L20,0 a3,3 0 0 1 3,3 L23,20 a3,3 0 0 1 -3,3 L3,23 a3,3 0 0 1 -3,-3 L0,3 a3,3 0 0 1 3,-3 Z"/>
                          </g>
                        </g>
                      </g>
                      <g fill="#000000" style="pointer-events: none;" transform="translate(28,2.5)">
                        <g style="user-select: none;">
                          <text x="0" y="18.015625" overflow="hidden" dy="-4.864">
                            <tspan>The fourth</tspan>
                          </text>
                        </g>
                      </g>
                      <g fill="#000000" style="pointer-events: none;" transform="translate(123,2.5)">
                        <g style="user-select: none;">
                          <text x="46" y="18.015625" dy="-4.864" text-anchor="end">
                            <tspan>14.3%</tspan>
                          </text>
                        </g>
                      </g>
                    </g>
                  </g>
                  <g focusable="true"
                    tabindex="0"
                    role="switch"
                    aria-controls="id-253"
                    aria-labelledby="id-253"
                    aria-checked="true"
                    transform="translate(10,156)"
                    style="cursor: pointer;">
                    <g fill="#ffffff" fill-opacity="0">
                      <rect width="174" height="39"/>
                    </g>
                    <g transform="translate(0,8)">
                      <g style="pointer-events: none;">
                        <g fill="#ffffff" fill-opacity="0" stroke-opacity="0" stroke="#000000">
                          <rect width="23" height="23"/>
                        </g>
                        <g>
                          <g fill="#a367dc" stroke="#a367dc">
                            <path d="M3,0 L20,0 a3,3 0 0 1 3,3 L23,20 a3,3 0 0 1 -3,3 L3,23 a3,3 0 0 1 -3,-3 L0,3 a3,3 0 0 1 3,-3 Z"/>
                          </g>
                        </g>
                      </g>
                      <g fill="#000000" style="pointer-events: none;" transform="translate(28,2.5)">
                        <g style="user-select: none;">
                          <text x="0" y="18.015625" overflow="hidden" dy="-4.864">
                            <tspan>The fifth</tspan>
                          </text>
                        </g>
                      </g>
                      <g fill="#000000" style="pointer-events: none;" transform="translate(123,2.5)">
                        <g style="user-select: none;">
                          <text x="46" y="18.015625" dy="-4.864" text-anchor="end">
                            <tspan>17.9%</tspan>
                          </text>
                        </g>
                      </g>
                    </g>
                  </g>
                  <g focusable="true"
                    tabindex="0"
                    role="switch"
                    aria-controls="id-283"
                    aria-labelledby="id-283"
                    aria-checked="true"
                    transform="translate(10,195)"
                    style="cursor: pointer;">
                    <g fill="#ffffff" fill-opacity="0">
                      <rect width="174" height="39"/>
                    </g>
                    <g transform="translate(0,8)">
                      <g style="pointer-events: none;">
                        <g fill="#ffffff" fill-opacity="0" stroke-opacity="0" stroke="#000000">
                          <rect width="23" height="23"/>
                        </g>
                        <g>
                          <g fill="#c767dc" stroke="#c767dc">
                            <path d="M3,0 L20,0 a3,3 0 0 1 3,3 L23,20 a3,3 0 0 1 -3,3 L3,23 a3,3 0 0 1 -3,-3 L0,3 a3,3 0 0 1 3,-3 Z"/>
                          </g>
                        </g>
                      </g>
                      <g fill="#000000" style="pointer-events: none;" transform="translate(28,2.5)">
                        <g style="user-select: none;">
                          <text x="0" y="18.015625" overflow="hidden" dy="-4.864">
                            <tspan>The sixth</tspan>
                          </text>
                        </g>
                      </g>
                      <g fill="#000000" style="pointer-events: none;" transform="translate(123,2.5)">
                        <g style="user-select: none;">
                          <text x="46" y="18.015625" dy="-4.864" text-anchor="end">
                            <tspan>21.4%</tspan>
                          </text>
                        </g>
                      </g>
                    </g>
                  </g>
                  <g focusable="true"
                    tabindex="0"
                    role="switch"
                    aria-controls="id-313"
                    aria-labelledby="id-313"
                    aria-checked="true"
                    transform="translate(10,234)"
                    style="cursor: pointer;">
                    <g fill="#ffffff" fill-opacity="0">
                      <rect width="174" height="39"/>
                    </g>
                    <g transform="translate(0,8)">
                      <g style="pointer-events: none;">
                        <g fill="#ffffff" fill-opacity="0" stroke-opacity="0" stroke="#000000">
                          <rect width="23" height="23"/>
                        </g>
                        <g>
                          <g fill="#dc67ce" stroke="#dc67ce">
                            <path d="M3,0 L20,0 a3,3 0 0 1 3,3 L23,20 a3,3 0 0 1 -3,3 L3,23 a3,3 0 0 1 -3,-3 L0,3 a3,3 0 0 1 3,-3 Z"/>
                          </g>
                        </g>
                      </g>
                      <g fill="#000000" style="pointer-events: none;" transform="translate(28,2.5)">
                        <g style="user-select: none;">
                          <text x="0" y="18.015625" overflow="hidden" dy="-4.864">
                            <tspan>The seventh</tspan>
                          </text>
                        </g>
                      </g>
                      <g fill="#000000" style="pointer-events: none;" transform="translate(123,2.5)">
                        <g style="user-select: none;">
                          <text x="46" y="18.015625" dy="-4.864" text-anchor="end">
                            <tspan>25.0%</tspan>
                          </text>
                        </g>
                      </g>
                    </g>
                  </g>
                </g>
                <desc id="id-94-description">Legend</desc>
              </g>
              <g transform="translate(209,0)">
                <g>
                  <g>
                    <g>
                      <g role="menu" opacity="1" aria-describedby="id-72-description">
                        <g>
                          <g clip-path="url(#id-77)">
                            <g/>
                          </g>
                          <g/>
                          <g transform="translate(0,0)" clip-path="url(#id-492)">
                            <g>
                              <g role="menuitem"
                                focusable="true"
                                tabindex="0"
                                id="id-132"
                                fill="#67b7dc"
                                stroke="#67b7dc">
                                <g>
                                  <g>
                                    <path d=" M529.797,0  L915.203,0  L915.203,16.786  L529.797,16.786 "/>
                                  </g>
                                </g>
                              </g>
                              <g role="menuitem"
                                focusable="true"
                                tabindex="0"
                                id="id-163"
                                fill="#6794dc"
                                stroke="#6794dc"
                                transform="translate(0,16.786)">
                                <g>
                                  <g>
                                    <path d=" M529.797,0  L915.203,0  L915.203,33.571  L529.797,33.571 "/>
                                  </g>
                                </g>
                              </g>
                              <g role="menuitem"
                                focusable="true"
                                tabindex="0"
                                id="id-193"
                                fill="#6771dc"
                                stroke="#6771dc"
                                transform="translate(0,50.357)">
                                <g>
                                  <g>
                                    <path d=" M529.797,0  L915.203,0  L915.203,50.357  L529.797,50.357 "/>
                                  </g>
                                </g>
                              </g>
                              <g role="menuitem"
                                focusable="true"
                                tabindex="0"
                                id="id-223"
                                fill="#8067dc"
                                stroke="#8067dc"
                                transform="translate(0,100.714)">
                                <g>
                                  <g>
                                    <path d=" M529.797,0  L915.203,0  L915.203,67.143  L529.797,67.143 "/>
                                  </g>
                                </g>
                              </g>
                              <g role="menuitem"
                                focusable="true"
                                tabindex="0"
                                id="id-253"
                                fill="#a367dc"
                                stroke="#a367dc"
                                transform="translate(0,167.857)">
                                <g>
                                  <g>
                                    <path d=" M529.797,0  L915.203,0  L915.203,83.929  L529.797,83.929 "/>
                                  </g>
                                </g>
                              </g>
                              <g role="menuitem"
                                focusable="true"
                                tabindex="0"
                                id="id-283"
                                fill="#c767dc"
                                stroke="#c767dc"
                                transform="translate(0,251.786)">
                                <g>
                                  <g>
                                    <path d=" M529.797,0  L915.203,0  L915.203,100.714  L529.797,100.714 "/>
                                  </g>
                                </g>
                              </g>
                              <g role="menuitem"
                                focusable="true"
                                tabindex="0"
                                id="id-313"
                                fill="#dc67ce"
                                stroke="#dc67ce"
                                transform="translate(0,352.5)">
                                <g>
                                  <g>
                                    <path d=" M529.797,0  L915.203,0  L915.203,117.5  L529.797,117.5 "/>
                                  </g>
                                </g>
                              </g>
                              <g fill-opacity="0.5" fill="#67b7dc" opacity="1" transform="translate(722.5,16.786)">
                                <g>
                                  <g>
                                    <path d=" M-192.703,0  L192.703,0  Q192.703,0 192.703,0 L-192.703,0  Q-192.703,0 -192.703,0"/>
                                  </g>
                                </g>
                              </g>
                              <g fill-opacity="0.5" fill="#6794dc" opacity="1" transform="translate(722.5,50.357)">
                                <g>
                                  <g>
                                    <path d=" M-192.703,0  L192.703,0  Q192.703,0 192.703,0 L-192.703,0  Q-192.703,0 -192.703,0"/>
                                  </g>
                                </g>
                              </g>
                              <g fill-opacity="0.5" fill="#6771dc" opacity="1" transform="translate(722.5,100.714)">
                                <g>
                                  <g>
                                    <path d=" M-192.703,0  L192.703,0  Q192.703,0 192.703,0 L-192.703,0  Q-192.703,0 -192.703,0"/>
                                  </g>
                                </g>
                              </g>
                              <g fill-opacity="0.5" fill="#8067dc" opacity="1" transform="translate(722.5,167.857)">
                                <g>
                                  <g>
                                    <path d=" M-192.703,0  L192.703,0  Q192.703,0 192.703,0 L-192.703,0  Q-192.703,0 -192.703,0"/>
                                  </g>
                                </g>
                              </g>
                              <g fill-opacity="0.5" fill="#a367dc" opacity="1" transform="translate(722.5,251.786)">
                                <g>
                                  <g>
                                    <path d=" M-192.703,0  L192.703,0  Q192.703,0 192.703,0 L-192.703,0  Q-192.703,0 -192.703,0"/>
                                  </g>
                                </g>
                              </g>
                              <g fill-opacity="0.5" fill="#c767dc" opacity="1" transform="translate(722.5,352.5)">
                                <g>
                                  <g>
                                    <path d=" M-192.703,0  L192.703,0  Q192.703,0 192.703,0 L-192.703,0  Q-192.703,0 -192.703,0"/>
                                  </g>
                                </g>
                              </g>
                              <g fill-opacity="0.5"
                                display="none"
                                fill="#dc67ce"
                                opacity="0"
                                aria-hidden="true"
                                transform="translate(722,470)">
                                <g>
                                  <g>
                                    <path d=" M-192.703,0  L192.703,0  Q192.703,0 192.703,0 L-192.703,0  Q-192.703,0 -192.703,0"/>
                                  </g>
                                </g>
                              </g>
                              <g visibility="hidden" transform="translate(722.5,235) scale(1.5785743794019553)"/>
                            </g>
                          </g>
                          <g transform="translate(0,0)">
                            <g>
                              <g fill-opacity="0"
                                stroke-opacity="0.2"
                                stroke="#000000"
                                stroke-width="1"
                                opacity="1">
                                <path d=" M915.203,8.393  L1449,5.572  L1600,5.572 "/>
                              </g>
                              <g fill-opacity="0"
                                stroke-opacity="0.2"
                                stroke="#000000"
                                stroke-width="1"
                                opacity="1">
                                <path d=" M915.203,33.5715  L1449,33.572  L1605,33.572 "/>
                              </g>
                              <g fill-opacity="0"
                                stroke-opacity="0.2"
                                stroke="#000000"
                                stroke-width="1"
                                opacity="1">
                                <path d=" M915.203,75.5355  L1449,75.536  L1528,75.536 "/>
                              </g>
                              <g fill-opacity="0"
                                stroke-opacity="0.2"
                                stroke="#000000"
                                stroke-width="1"
                                opacity="1">
                                <path d=" M915.203,134.2855  L1449,134.286  L1516,134.286 "/>
                              </g>
                              <g fill-opacity="0"
                                stroke-opacity="0.2"
                                stroke="#000000"
                                stroke-width="1"
                                opacity="1">
                                <path d=" M915.203,209.8215  L1449,209.822  L1534,209.822 "/>
                              </g>
                              <g fill-opacity="0"
                                stroke-opacity="0.2"
                                stroke="#000000"
                                stroke-width="1"
                                opacity="1">
                                <path d=" M915.203,302.143  L1449,302.143  L1526,302.143 "/>
                              </g>
                              <g fill-opacity="0"
                                stroke-opacity="0.2"
                                stroke="#000000"
                                stroke-width="1"
                                opacity="1">
                                <path d=" M915.203,411.25  L1449,411.25  L1501,411.25 "/>
                              </g>
                            </g>
                          </g>
                          <g transform="translate(1455,0)">
                            <g>
                              <g fill="#000000" opacity="1" aria-describedby="id-403-description" transform="translate(145,5.572)">
                                <g transform="translate(5,-9)" style="user-select: none;">
                                  <text x="0" y="18.015625" dy="-4.864">
                                    <tspan>: 3.6%</tspan>
                                  </text>
                                </g>
                                <desc id="id-403-description">: 3.6%</desc>
                              </g>
                              <g fill="#000000" opacity="1" aria-describedby="id-408-description" transform="translate(150,33.572)">
                                <g transform="translate(5,-9)" style="user-select: none;">
                                  <text x="0" y="18.015625" dy="-4.864">
                                    <tspan>: 7.1%</tspan>
                                  </text>
                                </g>
                                <desc id="id-408-description">: 7.1%</desc>
                              </g>
                              <g fill="#000000" opacity="1" aria-describedby="id-412-description" transform="translate(73,75.536)">
                                <g transform="translate(5,-9)" style="user-select: none;">
                                  <text x="0" y="18.015625" dy="-4.864">
                                    <tspan>The third: 10.7%</tspan>
                                  </text>
                                </g>
                                <desc id="id-412-description">The third: 10.7%</desc>
                              </g>
                              <g fill="#000000" opacity="1" aria-describedby="id-416-description" transform="translate(61,134.286)">
                                <g transform="translate(5,-9)" style="user-select: none;">
                                  <text x="0" y="18.015625" dy="-4.864">
                                    <tspan>The fourth: 14.3%</tspan>
                                  </text>
                                </g>
                                <desc id="id-416-description">The fourth: 14.3%</desc>
                              </g>
                              <g fill="#000000" opacity="1" aria-describedby="id-420-description" transform="translate(79,209.822)">
                                <g transform="translate(5,-9)" style="user-select: none;">
                                  <text x="0" y="18.015625" dy="-4.864">
                                    <tspan>The fifth: 17.9%</tspan>
                                  </text>
                                </g>
                                <desc id="id-420-description">The fifth: 17.9%</desc>
                              </g>
                              <g fill="#000000" opacity="1" aria-describedby="id-424-description" transform="translate(71,302.143)">
                                <g transform="translate(5,-9)" style="user-select: none;">
                                  <text x="0" y="18.015625" dy="-4.864">
                                    <tspan>The sixth: 21.4%</tspan>
                                  </text>
                                </g>
                                <desc id="id-424-description">The sixth: 21.4%</desc>
                              </g>
                              <g fill="#000000" opacity="1" aria-describedby="id-428-description" transform="translate(46,411.25)">
                                <g transform="translate(5,-9)" style="user-select: none;">
                                  <text x="0" y="18.015625" dy="-4.864">
                                    <tspan>The seventh: 25.0%</tspan>
                                  </text>
                                </g>
                                <desc id="id-428-description">The seventh: 25.0%</desc>
                              </g>
                            </g>
                          </g>
                        </g>
                        <desc id="id-72-description">Series</desc>
                      </g>
                    </g>
                  </g>
                  <g>
                    <g>
                      <g>
                        <g/>
                      </g>
                    </g>
                  </g>
                </g>
              </g>
            </g>
          </g>
        </g>
        <desc id="id-22-description">Chart</desc>
      </g>
      <g>
        <g>
          <g role="tooltip" visibility="hidden" opacity="0">
            <g fill="#ffffff"
              fill-opacity="0.9"
              stroke-width="1"
              stroke-opacity="1"
              stroke="#ffffff"
              filter="url(#filter-id-35)"
              style="pointer-events: none;"
              transform="translate(0,6)">
              <path d="M3,0 L3,0 L0,-6 L13,0 L21,0 a3,3 0 0 1 3,3 L24,8 a3,3 0 0 1 -3,3 L3,11 a3,3 0 0 1 -3,-3 L0,3 a3,3 0 0 1 3,-3"/>
            </g>
            <g>
              <g fill="#ffffff" style="pointer-events: none;" transform="translate(12,6)">
                <g transform="translate(0,7)" display="none"/>
              </g>
            </g>
          </g>
          <g visibility="hidden" display="none" style="pointer-events: none;">
            <g fill="#ffffff" opacity="1">
              <rect width="1904" height="500"/>
            </g>
            <g>
              <g transform="translate(952,250)">
                <g>
                  <g stroke-opacity="1" fill="#f3f3f3" fill-opacity="0.8">
                    <g>
                      <g>
                        <path d=" M53,0  a53,53,0,0,1,-106,0 a53,53,0,0,1,106,0 M42,0  a42,42,0,0,0,-84,0 a42,42,0,0,0,84,0 L42,0 "/>
                      </g>
                    </g>
                  </g>
                  <g stroke-opacity="1" fill="#000000" fill-opacity="0.2">
                    <g>
                      <g>
                        <path d=" M50,0  a50,50,0,0,1,-100,0 a50,50,0,0,1,100,0 M45,0  a45,45,0,0,0,-90,0 a45,45,0,0,0,90,0 L45,0 "/>
                      </g>
                    </g>
                  </g>
                  <g fill="#000000" fill-opacity="0.4">
                    <g transform="translate(-20,-9)" style="user-select: none;">
                      <text x="20px" y="18" dy="-4.86" text-anchor="middle">
                        <tspan>100%</tspan>
                      </text>
                    </g>
                  </g>
                </g>
              </g>
            </g>
          </g>
          <g opacity="0.3"
            aria-labelledby="id-50-title"
            filter="url(#filter-id-50)"
            style="cursor: pointer;"
            transform="translate(0,479)">
            <g fill="#ffffff" opacity="0">
              <rect width="66" height="21"/>
            </g>
            <g>
              <g shape-rendering="auto"
                fill="none"
                stroke-opacity="1"
                stroke-width="1.7999999999999998"
                stroke="#3cabff">
                <path d=" M15,15  C17.4001,15 22.7998,15.0001 27,15 C31.2002,14.9999 33.2999,6 36,6 C38.7001,6 38.6999,10.5 40.5,10.5 C42.3001,10.5 42.2999,6 45,6 C47.7001,6 50.9999,14.9999 54,15 C57.0002,15.0001 58.7999,15 60,15"/>
              </g>
              <g shape-rendering="auto"
                fill="none"
                stroke-opacity="1"
                stroke-width="1.7999999999999998"
                stroke="url(#gradient-id-53)">
                <path d=" M6,15  C8.2501,15 9.7498,15.0001 15,15 C20.2502,14.9999 20.7748,3.6 27,3.6 C33.2252,3.6 33.8998,14.9999 39.9,15 C45.9002,15.0001 45.9748,15 51,15 C56.0252,15 57.7499,15 60,15"/>
              </g>
            </g>
            <title id="id-50-title">Chart created using amCharts library</title>
          </g>
          <g role="tooltip"
            opacity="0"
            aria-describedby="id-313"
            transform="translate(946.5,426.25)"
            aria-hidden="true"
            visibility="hidden">
            <g fill="#dc67ce"
              fill-opacity="0.9"
              stroke-width="1"
              stroke-opacity="1"
              stroke="#ffffff"
              filter="url(#filter-id-82)"
              style="pointer-events: none;"
              transform="translate(-89.5,-35)">
              <path d="M3,0 L176,0 a3,3 0 0 1 3,3 L179,26 a3,3 0 0 1 -3,3 L176,29 L94.5,29 L89.5,35 L84.5,29 L3,29 a3,3 0 0 1 -3,-3 L0,3 a3,3 0 0 1 3,-3"/>
            </g>
            <g>
              <g fill="#000000" style="pointer-events: none;" transform="translate(0,-35)">
                <g transform="translate(-77.5,7)" style="user-select: none;">
                  <text x="0" y="18" dy="-4.86">
                    <tspan>The seventh: 25% (7)</tspan>
                  </text>
                </g>
              </g>
            </g>
          </g>
        </g>
      </g>
    </g>
  </g>
</svg>